<svg width="40" height="40" viewBox="0 0 40 40" fill="none" xmlns="http://www.w3.org/2000/svg">
<path d="M19.9844 2.98035C10.3242 2.97644 2.5 10.7968 2.5 20.4491C2.5 28.0819 7.39453 34.5702 14.2109 36.953C15.1289 37.1835 14.9883 36.5311 14.9883 36.0858V33.0585C9.6875 33.6796 9.47266 30.1718 9.11719 29.5858C8.39844 28.3593 6.69922 28.0468 7.20703 27.4608C8.41406 26.8397 9.64453 27.6171 11.0703 29.7225C12.1016 31.2499 14.1133 30.9921 15.1328 30.7382C15.3555 29.8202 15.832 28.9999 16.4883 28.3632C10.9961 27.3788 8.70703 24.0272 8.70703 20.0428C8.70703 18.1093 9.34375 16.3319 10.5938 14.8983C9.79688 12.535 10.668 10.5116 10.7852 10.2108C13.0547 10.0077 15.4141 11.8358 15.5977 11.9803C16.8867 11.6327 18.3594 11.4491 20.0078 11.4491C21.6641 11.4491 23.1406 11.6405 24.4414 11.9921C24.8828 11.6561 27.0703 10.0858 29.1797 10.2772C29.293 10.578 30.1445 12.5546 29.3945 14.8866C30.6602 16.3241 31.3047 18.1171 31.3047 20.0546C31.3047 24.0468 29 27.4022 23.4922 28.371C23.9639 28.8349 24.3385 29.3882 24.5941 29.9985C24.8496 30.6089 24.981 31.264 24.9805 31.9257V36.3202C25.0117 36.6718 24.9805 37.0194 25.5664 37.0194C32.4844 34.6874 37.4648 28.1522 37.4648 20.453C37.4648 10.7968 29.6367 2.98035 19.9844 2.98035Z" fill="#222222"/>
</svg>
